<?xml version="1.0" encoding="utf-8"?>
<!-- Generator: Adobe Illustrator 25.0.0, SVG Export Plug-In . SVG Version: 6.00 Build 0)  -->
<svg version="1.1" xmlns="http://www.w3.org/2000/svg" xmlns:xlink="http://www.w3.org/1999/xlink" x="0px" y="0px"
	 viewBox="0 0 300 120.3" style="enable-background:new 0 0 300 120.3;" xml:space="preserve">
<style type="text/css">
	.st0{fill:#F5AF02;}
	.st1{fill:#F7FFFF;}
	.st2{fill:#F75459;}
	.st3{fill:#A843B9;}
	.st4{fill:#FFFFFF;}
	.st5{fill:#425D94;}
</style>
<g id="Layer_1" xmlns:rdf="http://www.w3.org/1999/02/22-rdf-syntax-ns#" xmlns:svg="http://www.w3.org/2000/svg">
</g>
<g id="F">
	<g>
		<g>
			<g>
				<path class="st0" d="M156.8,77.3V64.8l9.7-0.8h28.2v13.4H156.8z M165.6,128.5V58.8c0-4.5,0.7-8.5,2.2-12.1
					c1.5-3.6,3.9-6.5,7.1-8.6c3.3-2.1,7.6-3.2,13-3.2c2.6,0,5,0.2,7,0.7c2.1,0.5,3.8,1,5.3,1.5l-3.1,12.7c-2.2-1-4.5-1.5-6.9-1.5
					c-2.5,0-4.4,0.8-5.8,2.4c-1.4,1.6-2.1,4.2-2.1,7.7v70H165.6z"/>
			</g>
		</g>
	</g>
</g>
<g id="i__x5B_blank_x5D_">
	<g>
		<g>
			<g>
				<path class="st1" d="M204.6,54c-3,0-5.4-0.8-7.1-2.5c-1.8-1.7-2.6-3.9-2.6-6.7c0-2.8,0.9-5,2.6-6.7c1.8-1.7,4.1-2.5,7.1-2.5
					c2.8,0,5.2,0.8,7,2.5c1.8,1.7,2.8,3.9,2.8,6.7c0,2.8-0.9,5.1-2.8,6.7C209.8,53.2,207.5,54,204.6,54z M196.1,129V64.5H213V129
					H196.1z"/>
			</g>
		</g>
	</g>
</g>
<g id="i">
	<g>
		<g>
			<g>
				<path class="st2" d="M208,54.3c-3,0-5.4-0.8-7.1-2.5c-1.8-1.7-2.6-3.9-2.6-6.7c0-2.8,0.9-5,2.6-6.7c1.8-1.7,4.1-2.5,7.1-2.5
					c2.8,0,5.2,0.8,7,2.5c1.8,1.7,2.8,3.9,2.8,6.7c0,2.8-0.9,5.1-2.8,6.7C213.2,53.5,210.8,54.3,208,54.3z M199.5,129.3V64.8h16.9
					v64.5H199.5z"/>
			</g>
		</g>
	</g>
</g>
<g id="L">
	<g>
		<g>
			<g>
				<path class="st3" d="M91.2,84.8c-4,0-7.1-0.8-9.4-2.5c-2.3-1.7-4-4-5-6.9c-1-3-1.6-6.4-1.6-10.3V-8.7h16.9v74.5
					c0,1.9,0.4,3.3,1.1,4c0.7,0.8,1.5,1.2,2.2,1.2c0.4,0,0.7,0,1-0.1c0.3,0,0.7-0.1,1.3-0.2l2.1,12.6c-1,0.4-2.2,0.7-3.6,1
					C94.8,84.7,93.1,84.8,91.2,84.8z"/>
			</g>
		</g>
	</g>
</g>
<g id="O__x5B_blank_LEFT_x5D_">
	<g>
		<g>
			<path class="st4" d="M125.9,97.9c-5.4,0-10.4-1.3-15.1-4s-8.5-6.5-11.5-11.6c-2.9-5-4.4-11.1-4.4-18.3c0-7.1,1.5-13.2,4.4-18.3
				c2.9-5,6.7-8.9,11.5-11.6c4.7-2.7,9.8-4,15.1-4c4.1,0,7.9,0.8,11.6,2.3c3.7,1.5,7,3.7,9.9,6.6c2.9,2.9,5.2,6.4,6.9,10.6
				c1.7,4.2,2.5,9,2.5,14.3c0,7.1-1.5,13.2-4.4,18.3c-2.9,5-6.7,8.9-11.5,11.6S131.3,97.9,125.9,97.9z M125.9,84.1
				c2.9,0,5.4-0.8,7.4-2.5c2-1.7,3.6-4,4.6-7c1-3,1.6-6.5,1.6-10.6c0-4.1-0.5-7.6-1.6-10.6c-1-3-2.6-5.3-4.6-7
				c-2-1.7-4.5-2.5-7.4-2.5c-2.9,0-5.4,0.8-7.4,2.5c-2,1.7-3.6,4-4.6,7c-1,3-1.6,6.5-1.6,10.6c0,4.1,0.5,7.6,1.6,10.6
				c1,3,2.6,5.3,4.6,7C120.5,83.3,123,84.1,125.9,84.1z"/>
		</g>
	</g>
</g>
<g id="O__x5B_blank_RIGHT_x5D_">
	<g>
		<g>
			<path class="st4" d="M131.9,97.9c-5.4,0-10.4-1.3-15.1-4s-8.5-6.5-11.5-11.6c-2.9-5-4.4-11.1-4.4-18.3c0-7.1,1.5-13.2,4.4-18.3
				c2.9-5,6.7-8.9,11.5-11.6c4.7-2.7,9.8-4,15.1-4c4.1,0,7.9,0.8,11.6,2.3c3.7,1.5,7,3.7,9.9,6.6c2.9,2.9,5.2,6.4,6.9,10.6
				c1.7,4.2,2.5,9,2.5,14.3c0,7.1-1.5,13.2-4.4,18.3c-2.9,5-6.7,8.9-11.5,11.6S137.3,97.9,131.9,97.9z M131.9,84.1
				c2.9,0,5.4-0.8,7.4-2.5c2-1.7,3.6-4,4.6-7c1-3,1.6-6.5,1.6-10.6c0-4.1-0.5-7.6-1.6-10.6c-1-3-2.6-5.3-4.6-7
				c-2-1.7-4.5-2.5-7.4-2.5c-2.9,0-5.4,0.8-7.4,2.5c-2,1.7-3.6,4-4.6,7c-1,3-1.6,6.5-1.6,10.6c0,4.1,0.5,7.6,1.6,10.6
				c1,3,2.6,5.3,4.6,7C126.5,83.3,129,84.1,131.9,84.1z"/>
		</g>
	</g>
</g>
<g id="O">
	<g>
		<g>
			<path class="st5" d="M129.1,96.8c-5.4,0-10.4-1.3-15.1-4s-8.5-6.5-11.5-11.6c-2.9-5-4.4-11.1-4.4-18.3c0-7.1,1.5-13.2,4.4-18.3
				c2.9-5,6.7-8.9,11.5-11.6c4.7-2.7,9.8-4,15.1-4c4.1,0,7.9,0.8,11.6,2.3c3.7,1.5,7,3.7,9.9,6.6c2.9,2.9,5.2,6.4,6.9,10.6
				c1.7,4.2,2.5,9,2.5,14.3c0,7.1-1.5,13.2-4.4,18.3c-2.9,5-6.7,8.9-11.5,11.6S134.4,96.8,129.1,96.8z M129.1,82.9
				c2.9,0,5.4-0.8,7.4-2.5c2-1.7,3.6-4,4.6-7c1-3,1.6-6.5,1.6-10.6c0-4.1-0.5-7.6-1.6-10.6c-1-3-2.6-5.3-4.6-7
				c-2-1.7-4.5-2.5-7.4-2.5c-2.9,0-5.4,0.8-7.4,2.5c-2,1.7-3.6,4-4.6,7c-1,3-1.6,6.5-1.6,10.6c0,4.1,0.5,7.6,1.6,10.6
				c1,3,2.6,5.3,4.6,7C123.7,82.1,126.1,82.9,129.1,82.9z"/>
		</g>
	</g>
</g>
</svg>
